<svg width="24" height="24" viewBox="0 0 24 24" fill="none" xmlns="http://www.w3.org/2000/svg">
<path d="M9.755 3.255C13.345 3.255 16.255 6.165 16.255 9.755C16.255 11.365 15.6647 12.8455 14.6847 13.9855L14.965 14.255H15.755L20.7452 19.255L19.255 20.7452L14.255 15.755V14.965L13.9855 14.6847C12.8455 15.6647 11.365 16.255 9.755 16.255C6.165 16.255 3.255 13.345 3.255 9.755C3.255 6.165 6.165 3.255 9.755 3.255ZM9.755 5.255C7.265 5.255 5.255 7.265 5.255 9.755C5.255 12.245 7.265 14.255 9.755 14.255C12.245 14.255 14.255 12.245 14.255 9.755C14.255 7.265 12.245 5.255 9.755 5.255Z" fill="#D1D5DB"/>
</svg>
