<svg width="24" height="24" viewBox="0 0 24 24" fill="none" xmlns="http://www.w3.org/2000/svg">
<path d="M21.1504 20.1652L19.7402 21.5754L16.3203 18.1555C14.9803 18.6855 13.52 18.9748 12 18.9748C7 18.9748 2.73 15.8648 1 11.4748C1.77001 9.50486 3.06048 7.80456 4.69043 6.5246L2.00977 3.84491L3.41992 2.42499L21.1504 20.1652ZM6.11035 7.94452C4.90036 8.86451 3.87969 10.0448 3.17969 11.4748C4.82969 14.8448 8.21 16.9748 12 16.9748C12.95 16.9748 13.87 16.8349 14.75 16.5949L13.7695 15.6154C13.2297 15.8453 12.6298 15.9748 12 15.9748C9.52 15.9748 7.5 13.9548 7.5 11.4748C7.50003 10.8449 7.63038 10.2445 7.86035 9.69452L6.11035 7.94452ZM12 3.97479C16.9999 3.97479 21.27 7.08488 23 11.4748C22.31 13.2347 21.2102 14.7751 19.8203 16.0051L18.4102 14.5949C19.4001 13.7449 20.2303 12.6947 20.8203 11.4748C19.1703 8.10481 15.79 5.97479 12 5.97479C11.32 5.97479 10.6598 6.06452 10.0098 6.19452L8.36035 4.5451C9.51027 4.17516 10.7301 3.97479 12 3.97479ZM9.5 11.4748C9.5 12.8548 10.62 13.9748 12 13.9748C12.04 13.9748 12.0801 13.9653 12.1201 13.9553L9.50977 11.3449C9.50977 11.3948 9.50003 11.4249 9.5 11.4748ZM12 6.97479C14.48 6.97479 16.5002 8.98503 16.4902 11.465C16.4902 11.835 16.4296 12.1954 16.3496 12.5353L14.2803 10.465C14.0303 9.89503 13.57 9.43475 13 9.18475L10.9297 7.11542C11.2797 7.02542 11.63 6.97479 12 6.97479Z" fill="#BEC5CA"/>
</svg>
